<?xml version="1.0" standalone="no"?>
<!DOCTYPE svg PUBLIC "-//W3C//DTD SVG 20010904//EN"
 "http://www.w3.org/TR/2001/REC-SVG-20010904/DTD/svg10.dtd">
<svg version="1.0" xmlns="http://www.w3.org/2000/svg"
 width="750.000000pt" height="750.000000pt" viewBox="0 0 750.000000 750.000000"
 preserveAspectRatio="xMidYMid meet">
<metadata>
Created by potrace 1.14, written by Peter Selinger 2001-2017
</metadata>
<g transform="translate(0.000000,750.000000) scale(0.100000,-0.100000)"
fill="#000000" stroke="none">
<path d="M2897 7134 c-1 -1 -49 -5 -107 -9 -198 -13 -187 -10 -405 -130 -94
-52 -167 -117 -220 -195 -14 -19 -42 -60 -64 -90 -22 -30 -60 -93 -84 -140
-25 -47 -58 -101 -74 -119 -15 -19 -62 -73 -103 -120 -41 -47 -90 -108 -109
-135 -19 -27 -62 -77 -95 -111 -87 -89 -164 -190 -209 -274 -10 -18 -27 -42
-38 -54 -10 -11 -19 -24 -19 -29 0 -4 -15 -29 -33 -55 -33 -46 -86 -142 -192
-345 -27 -53 -71 -133 -97 -177 -27 -44 -48 -83 -48 -87 0 -7 -83 -172 -153
-304 -115 -217 -290 -593 -300 -646 -2 -10 -6 -26 -9 -34 -20 -55 -103 -319
-105 -335 -2 -11 -8 -37 -14 -59 -6 -21 -8 -40 -5 -43 2 -3 0 -16 -5 -30 -5
-13 -14 -68 -20 -121 -9 -82 -21 -160 -45 -292 -3 -14 -6 -45 -8 -70 -3 -25
-7 -57 -10 -72 -31 -146 -37 -194 -66 -553 -5 -66 -12 -131 -15 -145 -3 -14
-8 -50 -10 -80 -2 -30 -7 -68 -10 -85 -21 -115 -24 -207 -10 -291 4 -21 8 -48
10 -59 1 -11 6 -36 10 -55 3 -19 8 -46 10 -60 2 -14 15 -59 29 -100 15 -41 28
-79 30 -85 2 -5 10 -26 18 -45 8 -19 22 -55 31 -80 45 -120 223 -338 319 -389
18 -10 63 -36 99 -58 36 -23 112 -62 170 -89 57 -26 117 -56 134 -65 16 -10
53 -25 80 -34 28 -9 64 -22 80 -30 17 -7 46 -16 65 -20 19 -4 40 -10 45 -14 6
-3 13 -6 18 -7 4 -1 8 -3 10 -4 1 -1 13 -4 27 -5 14 -1 32 -5 40 -8 56 -22
127 -41 200 -53 47 -7 96 -16 110 -18 73 -13 99 -17 140 -22 25 -3 59 -7 75
-9 197 -29 849 -44 935 -21 14 4 45 7 70 7 24 0 49 3 54 7 13 7 108 11 476 17
620 10 619 10 715 34 97 23 211 65 314 114 61 29 85 53 154 152 15 21 22 24
33 14 8 -6 14 -15 14 -20 0 -18 44 -104 60 -116 8 -7 26 -18 40 -25 14 -7 36
-20 50 -29 14 -9 59 -38 100 -65 41 -27 108 -72 149 -101 41 -29 78 -53 83
-53 5 0 17 -8 28 -17 28 -27 176 -80 255 -93 82 -13 157 -19 315 -26 63 -3
171 -9 240 -13 221 -15 423 0 523 38 16 6 42 13 60 16 97 17 236 73 372 150
111 63 154 104 183 175 18 42 18 50 5 95 -8 28 -23 68 -33 90 -10 22 -32 74
-49 117 -30 75 -66 140 -126 228 -17 25 -44 75 -59 112 -30 71 -77 140 -154
223 -26 29 -67 81 -92 116 -43 62 -223 249 -239 249 -4 0 -19 9 -32 21 -44 39
-133 95 -241 153 -111 59 -178 121 -178 163 0 11 15 35 33 54 18 19 49 54 67
79 19 25 37 47 40 50 23 20 69 159 71 213 2 51 -10 125 -21 132 -15 9 2 49 39
94 112 136 141 190 141 259 0 40 -43 142 -59 142 -30 0 32 93 124 187 138 142
160 226 93 363 -20 42 -57 98 -82 126 -25 28 -53 73 -62 99 -17 50 -61 128
-75 133 -5 2 -9 10 -9 17 0 7 -3 15 -7 17 -5 2 -36 33 -71 69 l-63 67 65 73
c117 132 170 271 158 419 -2 30 -4 134 -4 230 0 172 1 175 22 178 25 4 49 53
42 87 -7 41 -68 101 -174 171 -57 37 -115 72 -129 77 -18 7 -36 29 -53 64 -15
30 -31 60 -36 66 -6 7 -24 30 -41 52 -59 78 -134 147 -245 225 -61 44 -116 80
-122 80 -16 0 -33 27 -37 61 -7 52 -20 76 -220 402 -58 94 -171 241 -217 281
-52 45 -231 144 -338 186 -48 19 -79 22 -275 25 -210 4 -223 3 -286 -19 -73
-25 -144 -70 -180 -113 -38 -45 -215 -164 -233 -157 -9 3 -16 10 -16 15 0 16
-86 99 -164 158 -133 100 -243 135 -496 157 -70 6 -268 12 -273 8z"/>
</g>
</svg>
